<svg width="13" height="24" viewBox="0 0 13 24" fill="none" xmlns="http://www.w3.org/2000/svg">
<path d="M2 12.7692H10.8889M10.8889 18.1538H2M4.936 5.1795H6.44442H7.95283M8.46465 7.38462V2.76923C8.46465 2.56522 8.37951 2.36956 8.22797 2.2253C8.07642 2.08104 7.87088 2 7.65657 2H5.23232C5.01801 2 4.81247 2.08104 4.66092 2.2253C4.50938 2.36956 4.42424 2.56522 4.42424 2.76923V7.38462C3.67829 7.85662 3.06657 8.49694 2.6436 9.24854C2.22062 10.0001 1.99952 10.8397 2 11.6923V20.4615C2 20.8696 2.17027 21.2609 2.47336 21.5494C2.77645 21.8379 3.18753 22 3.61616 22H9.27273C9.70136 22 10.1124 21.8379 10.4155 21.5494C10.7186 21.2609 10.8889 20.8696 10.8889 20.4615V11.6923C10.8894 10.8397 10.6683 10.0001 10.2453 9.24854C9.82231 8.49694 9.2106 7.85662 8.46465 7.38462Z" stroke="white" stroke-opacity="0.75" stroke-width="2.4" stroke-linecap="round" stroke-linejoin="round"/>
</svg>
